<svg xmlns="http://www.w3.org/2000/svg" version="1.1" xmlns:xlink="http://www.w3.org/1999/xlink" xmlns:svgjs="http://svgjs.dev/svgjs" width="2000" height="2250" viewBox="0 0 2000 2250"><g transform="matrix(1,0,0,1,0,0)"><svg viewBox="0 0 320 360" data-background-color="#ffffff" preserveAspectRatio="xMidYMid meet" height="2250" width="2000" xmlns="http://www.w3.org/2000/svg" xmlns:xlink="http://www.w3.org/1999/xlink"><g id="tight-bounds" transform="matrix(1,0,0,1,0,0)"><svg viewBox="0 0 320 360" height="360" width="320"><g><svg></svg></g><g><svg viewBox="0 0 320 360" height="360" width="320"><g><path xmlns="http://www.w3.org/2000/svg" d="M320 187.111c0-45.764-20.238-86.866-52.203-114.908-28.043-31.964-69.145-52.203-114.908-52.203-84.302 0-152.889 68.587-152.889 152.889 0 45.753 20.231 86.848 52.185 114.891 28.043 31.975 69.152 52.22 114.926 52.22 0.299 0 0.59-0.021 0.889-0.021 0.299 0 0.59 0.021 0.889 0.021 83.456 0 151.111-67.655 151.111-151.111 0-0.299-0.021-0.59-0.021-0.889 0-0.299 0.021-0.59 0.021-0.889zM59.833 263.097c-15.093-21.255-24.071-47.143-24.256-75.097 0.48-72.928 59.492-131.943 132.423-132.423 27.954 0.185 53.845 9.163 75.097 24.256 24.366 23.627 39.57 56.64 39.57 93.056 0 71.559-58.219 129.778-129.778 129.778-36.416 0-69.429-15.204-93.056-39.57zM3.556 172.889c0-82.343 66.99-149.333 149.333-149.333 35.051 0 67.292 12.167 92.8 32.462-22.98-13.824-49.863-21.796-78.578-21.796-84.302 0-152.889 68.587-152.889 152.889 0 28.708 7.968 55.584 21.785 78.56-20.288-25.5-32.452-57.739-32.451-92.782zM167.111 318.667c-35.84 0-68.363-14.418-92.107-37.743 21.952 15.89 48.864 25.298 77.885 25.298 73.522 0 133.333-59.812 133.333-133.333 0-29.02-9.408-55.932-25.298-77.885 23.324 23.744 37.742 56.267 37.743 92.107 0 72.54-59.015 131.556-131.556 131.556z" fill="#000000" fill-rule="nonzero" stroke="none" stroke-width="1" stroke-linecap="butt" stroke-linejoin="miter" stroke-miterlimit="10" stroke-dasharray="" stroke-dashoffset="0" font-family="none" font-weight="none" font-size="none" text-anchor="none" style="mix-blend-mode: normal" data-fill-palette-color="tertiary"></path></g><g transform="matrix(1,0,0,1,104.64143651836783,99)"><svg viewBox="0 0 110.71712696326435 162" height="162" width="110.71712696326435"><g><svg viewBox="0 0 110.71712696326435 162" height="162" width="110.71712696326435"><g><svg viewBox="0 0 134.2222222222222 196.3923793580247" height="162" width="110.71712696326435"><g transform="matrix(1,0,0,1,0,34.392379358024684)"><svg viewBox="0 0 134.2222222222222 162" height="162" width="134.2222222222222"><g id="textblocktransform"><svg viewBox="0 0 134.2222222222222 162" height="162" width="134.2222222222222" id="textblock"><g><svg viewBox="0 0 134.2222222222222 162" height="162" width="134.2222222222222"><g transform="matrix(1,0,0,1,0,0)"><svg width="134.2222222222222" viewBox="1.25 -36 30.200000762939453 36.45000076293945" height="162" data-palette-color="url(#8114b437-e0b3-48e3-9900-14ecbfe8202c)"></svg></g></svg></g></svg></g></svg></g><g transform="matrix(1,0,0,1,46.373777777777775,0)"><svg viewBox="0 0 41.47466666666666 10.752691358024688" height="10.752691358024688" width="41.47466666666666"><g><svg xmlns="http://www.w3.org/2000/svg" data-name="Your Icon" viewBox="36.5 39 27 7" x="0" y="0" height="10.752691358024688" width="41.47466666666666" class="icon-icon-0" data-fill-palette-color="accent" id="icon-0"><circle cx="40" cy="42.5" r="3.5" fill="#000000" data-fill-palette-color="accent"></circle><circle cx="50" cy="42.5" r="3.5" fill="#000000" data-fill-palette-color="accent"></circle><circle cx="60" cy="42.5" r="3.5" fill="#000000" data-fill-palette-color="accent"></circle></svg></g></svg></g><g></g></svg></g></svg></g></svg></g></svg></g><defs></defs><mask id="38bbf169-3df7-421d-8a70-ebc82590f6fa"><g id="SvgjsG1027"><svg viewBox="0 0 320 360" height="360" width="320"><g><svg></svg></g><g><svg viewBox="0 0 320 360" height="360" width="320"><g></g><g transform="matrix(1,0,0,1,104.64143651836783,99)"><svg viewBox="0 0 110.71712696326435 162" height="162" width="110.71712696326435"><g><svg viewBox="0 0 110.71712696326435 162" height="162" width="110.71712696326435"><g><svg viewBox="0 0 134.2222222222222 196.3923793580247" height="162" width="110.71712696326435"><g transform="matrix(1,0,0,1,0,34.392379358024684)"><svg viewBox="0 0 134.2222222222222 162" height="162" width="134.2222222222222"><g id="SvgjsG1026"><svg viewBox="0 0 134.2222222222222 162" height="162" width="134.2222222222222" id="SvgjsSvg1025"><g><svg viewBox="0 0 134.2222222222222 162" height="162" width="134.2222222222222"><g transform="matrix(1,0,0,1,0,0)"><svg width="134.2222222222222" viewBox="1.25 -36 30.200000762939453 36.45000076293945" height="162" data-palette-color="url(#8114b437-e0b3-48e3-9900-14ecbfe8202c)"><path d="M27.45-2.1Q25.95-1 23.28-0.28 20.6 0.45 16.38 0.45 12.15 0.45 8.35-0.25 4.55-0.95 2.9-1.8 1.25-2.65 1.25-3.45L1.25-3.45Q1.25-6.25 2.05-9.28 2.85-12.3 3.95-12.3L3.95-12.3Q4.15-12.3 8.1-10.95 12.05-9.6 14.05-9.6 16.05-9.6 16.65-10.03 17.25-10.45 17.25-11.25 17.25-12.05 16.15-12.68 15.05-13.3 13.4-13.78 11.75-14.25 9.83-15.15 7.9-16.05 6.25-17.15 4.6-18.25 3.5-20.28 2.4-22.3 2.4-24.9L2.4-24.9Q2.4-36 15.65-36L15.65-36Q20.6-36 24.2-35.38 27.8-34.75 29.28-33.98 30.75-33.2 30.75-32.45L30.75-32.45Q30.75-29.85 29.53-26.85 28.3-23.85 27.15-23.85L27.15-23.85Q26.95-23.85 25.85-24.3L25.85-24.3Q22.55-25.75 20.38-25.75 18.2-25.75 17.43-25.35 16.65-24.95 16.65-24.13 16.65-23.3 17.75-22.78 18.85-22.25 20.48-21.83 22.1-21.4 24.03-20.53 25.95-19.65 27.6-18.48 29.25-17.3 30.35-15.15 31.45-13 31.45-10.15L31.45-10.15Q31.45-7.15 29.9-4.7L29.9-4.7Q28.95-3.2 27.45-2.1Z" opacity="1" transform="matrix(1,0,0,1,0,0)" fill="white" class="wordmark-text-0" id="SvgjsPath1024"></path></svg></g></svg></g></svg></g></svg></g><g transform="matrix(1,0,0,1,46.373777777777775,0)"><svg viewBox="0 0 41.47466666666666 10.752691358024688" height="10.752691358024688" width="41.47466666666666"><g><svg xmlns="http://www.w3.org/2000/svg" data-name="Your Icon" viewBox="36.5 39 27 7" x="0" y="0" height="10.752691358024688" width="41.47466666666666" class="icon-icon-0" data-fill-palette-color="accent" id="SvgjsSvg1023"></svg></g></svg></g><g></g></svg></g></svg></g></svg></g></svg></g><defs></defs></svg></g></mask><linearGradient x1="0.054" x2="0.941" y1="0.5" y2="0.5" id="8114b437-e0b3-48e3-9900-14ecbfe8202c"><stop stop-color="#0f3054" offset="0"></stop><stop stop-color="#3b8dcb" offset="0.498"></stop><stop stop-color="#0f3054" offset="1"></stop></linearGradient><rect width="320" height="360" fill="url(#8114b437-e0b3-48e3-9900-14ecbfe8202c)" mask="url(#38bbf169-3df7-421d-8a70-ebc82590f6fa)" data-fill-palette-color="primary"></rect></svg><rect width="320" height="360" fill="none" stroke="none" visibility="hidden"></rect></g></svg></g></svg>